<?xml version="1.0" encoding="utf-8"?>
<svg width="800px" height="800px" viewBox="0 0 24 24" fill="none" xmlns="http://www.w3.org/2000/svg">
  <defs>
    <linearGradient gradientUnits="userSpaceOnUse" x1="12" y1="2" x2="12" y2="22" id="gradient-0" gradientTransform="matrix(0.999998, -0.002333, 0.002339, 1.002338, -0.004645, 0.023315)">
      <stop offset="0" style="stop-color: rgb(96.863% 14.51% 52.157%)"/>
      <stop offset="0.479" style="stop-color: rgb(58, 12, 163);"/>
      <stop offset="1" style="stop-color: rgb(76, 201, 240);"/>
    </linearGradient>
  </defs>
  <ellipse style="stroke: rgb(0, 0, 0); fill: rgb(255, 255, 255);" cx="11.908" cy="12.08" rx="7.341" ry="8.011"/>
  <path fill-rule="evenodd" clip-rule="evenodd" d="M 7.25 2.388 C 8.549 2.099 10.124 2 12 2 C 13.876 2 15.451 2.099 16.75 2.388 C 18.06 2.679 19.149 3.176 19.986 4.014 C 20.824 4.851 21.321 5.94 21.612 7.25 C 21.901 8.549 22 10.124 22 12 C 22 13.876 21.901 15.451 21.612 16.75 C 21.321 18.06 20.824 19.149 19.986 19.986 C 19.149 20.824 18.06 21.321 16.75 21.612 C 15.451 21.901 13.876 22 12 22 C 10.124 22 8.549 21.901 7.25 21.612 C 5.94 21.321 4.851 20.824 4.014 19.986 C 3.176 19.149 2.679 18.06 2.388 16.75 C 2.099 15.451 2 13.876 2 12 C 2 10.124 2.099 8.549 2.388 7.25 C 2.679 5.94 3.176 4.851 4.014 4.014 C 4.851 3.176 5.94 2.679 7.25 2.388 Z" style="fill-rule: evenodd; paint-order: fill; fill: url('#gradient-0');"/>
  <g transform="matrix(1.374532, 0, 0, 1.374532, -4.201024, -2.848485)" style="">
    <path d="M 13.89 13.051 L 15.89 15.051" stroke-width="2" stroke-linecap="round" stroke-linejoin="round" style="stroke: rgb(255, 255, 255);"/>
    <path d="M 14.89 10.551 C 14.89 12.484 13.323 14.051 11.39 14.051 C 9.457 14.051 7.89 12.484 7.89 10.551 C 7.89 8.618 9.457 7.051 11.39 7.051 C 13.323 7.051 14.89 8.618 14.89 10.551 Z" stroke-width="2" style="stroke: rgb(255, 255, 255);"/>
  </g>
</svg>